<?xml version="1.0" encoding="utf-8"?>
<!-- Generator: Adobe Illustrator 24.2.3, SVG Export Plug-In . SVG Version: 6.00 Build 0)  -->
<svg version="1.1" id="Capa_1" xmlns="http://www.w3.org/2000/svg" xmlns:xlink="http://www.w3.org/1999/xlink" x="0px" y="0px"
	 viewBox="0 0 300 70" style="enable-background:new 0 0 300 70;" xml:space="preserve">
<style type="text/css">
	.st0{fill:#FFFFFF;}
</style>
<g>
	<path class="st0" d="M18.76,40.34h-6.42v10.13c0,1.05-0.52,1.58-1.56,1.58H7.55c-1.05,0-1.58-0.53-1.58-1.58V19.11
		c0-1.05,0.53-1.58,1.58-1.58h11.23c1.67,0,3.16,0.64,4.46,1.92c1.3,1.28,1.96,2.77,1.96,4.47v10.02c0,1.71-0.65,3.21-1.96,4.48
		C21.94,39.7,20.44,40.34,18.76,40.34z M18.82,33.97V23.9h-6.48v10.06H18.82z"/>
	<path class="st0" d="M44.05,50.78l-1.27-6.42h-6.68l-1.27,6.42c-0.18,0.85-0.7,1.28-1.56,1.28h-3.27c-0.51,0-0.92-0.19-1.23-0.57
		c-0.32-0.37-0.43-0.8-0.33-1.32l6.28-31.35c0.16-0.85,0.67-1.27,1.54-1.27h6.37c0.86,0,1.38,0.42,1.56,1.27l6.26,31.35
		c0.09,0.51-0.02,0.95-0.33,1.32c-0.32,0.38-0.73,0.57-1.21,0.57h-3.3C44.73,52.05,44.21,51.63,44.05,50.78z M41.5,37.99
		l-2.07-10.33l-2.07,10.33H41.5z"/>
	<path class="st0" d="M71.89,52.05h-3.45c-0.7,0-1.19-0.34-1.45-1.01l-5.05-13.05h-1.89v12.48c0,1.05-0.53,1.58-1.58,1.58h-3.23
		c-1.05,0-1.58-0.53-1.58-1.58V19.11c0-1.05,0.53-1.58,1.58-1.58h11.23c1.68,0,3.18,0.64,4.48,1.92c1.3,1.28,1.96,2.77,1.96,4.47
		v7.65c0,1.35-0.42,2.57-1.25,3.67s-1.86,1.88-3.08,2.33l4.79,12.33c0.21,0.54,0.15,1.03-0.15,1.47
		C72.88,51.82,72.44,52.05,71.89,52.05z M66.5,31.59V23.9h-6.46v7.69H66.5z"/>
	<path class="st0" d="M90.39,52.05l0.88,1.08c0.29,0.37,0.34,0.77,0.15,1.21c-0.19,0.42-0.53,0.64-1.01,0.64h-4.06
		c-0.5,0.01-0.91-0.18-1.23-0.57l-1.93-2.35c-1.71,0-3.22-0.63-4.5-1.88s-1.93-2.74-1.93-4.45V23.88c0-1.68,0.64-3.16,1.92-4.44
		c1.28-1.27,2.76-1.91,4.45-1.91h7.25c1.68,0,3.17,0.64,4.46,1.91s1.93,2.76,1.93,4.46v21.8c0,1.7-0.64,3.18-1.93,4.45
		C93.54,51.42,92.06,52.05,90.39,52.05z M90.39,45.68V23.9h-7.27v21.77H90.39z"/>
	<path class="st0" d="M113.26,52.05h-7.03c-1.7,0-3.19-0.63-4.47-1.9c-1.28-1.27-1.92-2.75-1.92-4.45V19.11
		c0-1.05,0.53-1.58,1.58-1.58h3.21c1.05,0,1.58,0.53,1.58,1.58v26.56h7.14V19.11c0-1.05,0.52-1.58,1.56-1.58h3.23
		c1.05,0,1.58,0.53,1.58,1.58v26.54c0,1.71-0.66,3.21-1.97,4.48C116.44,51.41,114.95,52.05,113.26,52.05z"/>
	<path class="st0" d="M137.85,52.05h-8.99c-1.67,0-3.1-0.59-4.28-1.78c-1.19-1.19-1.78-2.61-1.78-4.28V19.11
		c0-1.05,0.53-1.58,1.58-1.58h13.34c1.05,0,1.58,0.53,1.58,1.58v3.23c0,1.04-0.53,1.56-1.58,1.56h-8.55v7.69h7.14
		c1.05,0,1.58,0.53,1.58,1.58v3.23c0,1.05-0.53,1.58-1.58,1.58h-7.14v7.69h8.68c1.05,0,1.58,0.53,1.58,1.58v3.21
		C139.43,51.52,138.9,52.05,137.85,52.05z"/>
	<path class="st0" d="M166.28,40.34h-6.42v10.13c0,1.05-0.52,1.58-1.56,1.58h-3.23c-1.05,0-1.58-0.53-1.58-1.58V19.11
		c0-1.05,0.53-1.58,1.58-1.58h11.23c1.67,0,3.16,0.64,4.46,1.92c1.3,1.28,1.96,2.77,1.96,4.47v10.02c0,1.71-0.65,3.21-1.96,4.48
		C169.46,39.7,167.97,40.34,166.28,40.34z M166.35,33.97V23.9h-6.48v10.06H166.35z"/>
	<path class="st0" d="M191.57,50.78l-1.27-6.42h-6.68l-1.27,6.42c-0.18,0.85-0.7,1.28-1.56,1.28h-3.27c-0.51,0-0.92-0.19-1.23-0.57
		c-0.32-0.37-0.43-0.8-0.33-1.32l6.29-31.35c0.16-0.85,0.67-1.27,1.54-1.27h6.37c0.86,0,1.38,0.42,1.56,1.27l6.26,31.35
		c0.09,0.51-0.02,0.95-0.33,1.32c-0.32,0.38-0.72,0.57-1.21,0.57h-3.29C192.25,52.05,191.73,51.63,191.57,50.78z M189.02,37.99
		l-2.07-10.33l-2.07,10.33H189.02z"/>
	<path class="st0" d="M219.41,52.05h-3.45c-0.7,0-1.19-0.34-1.45-1.01l-5.05-13.05h-1.89v12.48c0,1.05-0.53,1.58-1.58,1.58h-3.23
		c-1.05,0-1.58-0.53-1.58-1.58V19.11c0-1.05,0.53-1.58,1.58-1.58h11.23c1.68,0,3.18,0.64,4.48,1.92c1.3,1.28,1.96,2.77,1.96,4.47
		v7.65c0,1.35-0.42,2.57-1.25,3.67c-0.83,1.1-1.86,1.88-3.08,2.33l4.79,12.33c0.2,0.54,0.15,1.03-0.15,1.47
		C220.41,51.82,219.97,52.05,219.41,52.05z M214.03,31.59V23.9h-6.46v7.69H214.03z"/>
	<path class="st0" d="M229.08,52.05h-3.23c-1.05,0-1.58-0.53-1.58-1.58V19.11c0-1.05,0.53-1.58,1.58-1.58h3.23
		c1.05,0,1.58,0.53,1.58,1.58v31.36C230.66,51.52,230.13,52.05,229.08,52.05z"/>
	<path class="st0" d="M247.98,52.05h-8.15c-1.67,0-3.1-0.59-4.3-1.78c-1.19-1.19-1.79-2.61-1.79-4.28V19.11
		c0-1.05,0.53-1.58,1.58-1.58h3.23c1.05,0,1.58,0.53,1.58,1.58v26.56h7.84c1.04,0,1.56,0.53,1.56,1.58v3.21
		C249.54,51.52,249.02,52.05,247.98,52.05z"/>
	<path class="st0" d="M266.85,52.05h-8.15c-1.67,0-3.1-0.59-4.3-1.78c-1.19-1.19-1.79-2.61-1.79-4.28V19.11
		c0-1.05,0.53-1.58,1.58-1.58h3.23c1.05,0,1.58,0.53,1.58,1.58v26.56h7.84c1.04,0,1.56,0.53,1.56,1.58v3.21
		C268.41,51.52,267.89,52.05,266.85,52.05z"/>
	<path class="st0" d="M287.26,50.78l-1.27-6.42h-6.68l-1.27,6.42c-0.18,0.85-0.7,1.28-1.56,1.28h-3.27c-0.51,0-0.92-0.19-1.23-0.57
		c-0.32-0.37-0.43-0.8-0.33-1.32l6.29-31.35c0.16-0.85,0.67-1.27,1.54-1.27h6.37c0.86,0,1.38,0.42,1.56,1.27l6.26,31.35
		c0.09,0.51-0.02,0.95-0.33,1.32c-0.32,0.38-0.72,0.57-1.21,0.57h-3.29C287.95,52.05,287.42,51.63,287.26,50.78z M284.71,37.99
		l-2.07-10.33l-2.07,10.33H284.71z"/>
</g>
</svg>
